<?xml version="1.0" ?><!DOCTYPE svg  PUBLIC '-//W3C//DTD SVG 1.0//EN'  'http://www.w3.org/TR/2001/REC-SVG-20010904/DTD/svg10.dtd'>
<svg height="54px" style="shape-rendering:geometricPrecision; text-rendering:geometricPrecision; image-rendering:optimizeQuality; fill-rule:evenodd; clip-rule:evenodd" version="1.0" viewBox="0 0 16788 14164" width="64px" xml:space="preserve" xmlns="http://www.w3.org/2000/svg" xmlns:xlink="http://www.w3.org/1999/xlink"><defs><style type="text/css">
   <![CDATA[
    .fil0 {fill:#27afb7;fill-rule:nonzero}
   ]]>
  </style></defs><g id="Layer_x0020_1"><path class="fil0" d="M262 0l7 0 16256 0c145,0 262,118 262,262l0 7 0 2085 0 7 0 7 0 11535c0,145 -118,262 -262,262l-7 0 -16256 0c-145,0 -262,-118 -262,-262l0 -7 0 -11528 0 -7 0 -7 0 -2091c0,-145 118,-262 262,-262zm11541 13115c-145,0 -262,-118 -262,-262 0,-145 118,-262 262,-262l2602 0c145,0 262,118 262,262 0,145 -118,262 -262,262l-2602 0zm1049 -1311c-145,0 -262,-118 -262,-262 0,-145 118,-262 262,-262l2602 0c145,0 262,118 262,262 0,145 -118,262 -262,262l-2602 0zm-11541 -8131c-145,0 -262,-118 -262,-262 0,-145 118,-262 262,-262l2602 0c145,0 262,118 262,262 0,145 -118,262 -262,262l-2602 0zm1049 1311c-145,0 -262,-118 -262,-262 0,-145 118,-262 262,-262l2602 0c145,0 262,118 262,262 0,145 -118,262 -262,262l-2602 0zm5662 1437l162 -162c-109,-81 -227,-150 -350,-203 -512,-218 -1136,-165 -1666,365l-1855 1855c-530,530 -583,1154 -365,1666 86,202 216,390 375,549 159,159 347,289 549,375 508,217 1127,167 1655,-352l11 -12 1319 -1319c-126,-158 -231,-333 -310,-519 -296,-696 -231,-1537 475,-2243zm536 -536l1319 -1319 17 -16c702,-691 1536,-753 2225,-459 267,114 511,281 715,485 204,204 371,448 485,715 296,695 231,1536 -475,2242l-1855 1855c-706,706 -1547,771 -2242,475 -186,-79 -361,-185 -519,-310l-1319 1319 -17 16c-702,691 -1536,753 -2225,459 -267,-114 -511,-281 -715,-485 -204,-204 -372,-448 -485,-715 -296,-695 -231,-1536 475,-2242l1855 -1855c706,-706 1547,-771 2242,-475 186,79 361,185 519,310zm1691 -948l-1319 1319c125,158 231,333 310,519 296,695 231,1536 -475,2242l-162 162c109,81 227,150 350,203 512,218 1136,165 1666,-365l1855 -1855c530,-530 583,-1154 365,-1666 -86,-203 -216,-390 -375,-549 -159,-159 -347,-289 -549,-375 -508,-217 -1127,-167 -1655,352l-11 12zm-1693 1693l-162 162c-530,530 -583,1154 -365,1666 52,123 121,241 203,350l162 -162c530,-530 583,-1154 365,-1666 -52,-123 -121,-241 -203,-350zm-4621 -5581l524 0 0 525 -524 0 0 -525zm-1311 0l524 0 0 525 -524 0 0 -525zm-1311 0l524 0 0 525 -524 0 0 -525zm14951 1574l-15738 0 0 11017 15738 0 0 -11017zm-15738 -525l15738 0 0 -1573 -15738 0 0 1573z"/></g></svg>