<?xml version="1.0" standalone="no"?>
<!DOCTYPE svg PUBLIC "-//W3C//DTD SVG 20010904//EN"
 "http://www.w3.org/TR/2001/REC-SVG-20010904/DTD/svg10.dtd">
<svg version="1.0" xmlns="http://www.w3.org/2000/svg"
 width="256.000000pt" height="256.000000pt" viewBox="0 0 256.000000 256.000000"
 preserveAspectRatio="xMidYMid meet">

<g transform="translate(0.000000,256.000000) scale(0.100000,-0.100000)"
fill="#6ae2f1" stroke="none">
<path d="M1414 2391 c-2 -2 -4 -123 -4 -268 l0 -263 50 0 c106 0 239 -47 330
-116 57 -44 122 -140 144 -213 33 -113 15 -258 -45 -353 -84 -131 -266 -227
-431 -228 l-48 0 0 -265 0 -265 53 0 c60 0 245 31 323 55 147 44 307 140 417
251 128 131 203 264 249 447 28 113 30 131 26 262 -4 114 -10 157 -32 235 -79
273 -250 476 -507 605 -93 47 -152 67 -274 91 -85 17 -243 33 -251 25z"/>
<path d="M941 1593 l-244 -326 114 -228 c62 -125 111 -230 109 -232 -8 -7
-468 -237 -474 -237 -3 0 -30 48 -59 107 l-54 106 -110 -148 -110 -148 211
-159 c116 -87 213 -158 216 -158 10 1 1063 1413 1064 1428 1 13 -396 322 -413
322 -3 0 -116 -147 -250 -327z"/>
</g>
</svg>